<svg id="Group_2320" data-name="Group 2320" xmlns="http://www.w3.org/2000/svg" xmlns:xlink="http://www.w3.org/1999/xlink" width="199.667" height="61.587" viewBox="0 0 199.667 61.587">
  <defs>
    <clipPath id="clip-path">
      <rect id="Rectangle_324" data-name="Rectangle 324" width="199.667" height="61.587" fill="#fff"/>
    </clipPath>
  </defs>
  <g id="Mask_Group_2292" data-name="Mask Group 2292" clip-path="url(#clip-path)">
    <path id="Path_484" data-name="Path 484" d="M136.367,24.446c5.1,0,8.052,2.107,8.052,5.787,0,2.768-1.635,4.435-4.34,4.938,3.114.409,5.126,1.95,5.126,5.1,0,3.806-3.019,6.2-8.429,6.2H128V24.446ZM132.719,33.5h3.774c2.013,0,3.208-1.038,3.208-2.673s-1.164-2.673-3.208-2.673h-3.774Zm0,9.215h4.089c2.264,0,3.554-1.038,3.554-2.736,0-1.793-1.321-2.831-3.554-2.831h-4.089Z" transform="translate(-98.509 -18.814)" fill="#fff"/>
    <rect id="Rectangle_321" data-name="Rectangle 321" width="4.435" height="22.016" transform="translate(48.52 5.632)" fill="#fff"/>
    <path id="Path_485" data-name="Path 485" d="M256.8,49.837V66H252.87l-.409-1.95a5.707,5.707,0,0,1-4.749,2.139c-3.334,0-6.416-1.7-6.416-7.58V49.837h4.435v8.24c0,2.862.944,4.435,3.145,4.435s3.491-1.73,3.491-4.718V49.837Z" transform="translate(-185.7 -38.354)" fill="#fff"/>
    <path id="Path_486" data-name="Path 486" d="M323.285,49.018c4.906,0,8.272,3.019,8.335,7.768a8.394,8.394,0,0,1-.126,1.51H319.763v.126c.189,2.328,1.51,3.774,3.806,3.774,1.793,0,3.051-.786,3.428-2.3h4.372c-.5,3.145-3.239,5.661-7.485,5.661-5.473,0-8.744-3.239-8.744-8.24,0-5.064,3.271-8.3,8.146-8.3m3.9,6.385a3.719,3.719,0,0,0-7.328,0Z" transform="translate(-242.53 -37.724)" fill="#fff"/>
    <path id="Path_487" data-name="Path 487" d="M405.593,24.447c4.781,0,7.957,2.862,7.957,7.328,0,4.435-3.177,7.3-7.957,7.3h-4.246v7.391h-4.718V24.447Zm-4.246,10.694h3.806c2.2,0,3.617-1.29,3.617-3.365,0-2.107-1.415-3.4-3.617-3.4h-3.806Z" transform="translate(-305.244 -18.814)" fill="#fff"/>
    <path id="Path_488" data-name="Path 488" d="M479.986,49.018c4.906,0,8.272,3.019,8.335,7.768a8.372,8.372,0,0,1-.126,1.51H476.464v.126c.189,2.328,1.51,3.774,3.806,3.774,1.793,0,3.051-.786,3.428-2.3h4.372c-.5,3.145-3.239,5.661-7.485,5.661-5.473,0-8.744-3.239-8.744-8.24,0-5.064,3.271-8.3,8.146-8.3m3.9,6.385a3.719,3.719,0,0,0-7.328,0Z" transform="translate(-363.126 -37.724)" fill="#fff"/>
    <path id="Path_489" data-name="Path 489" d="M566.323,61.63v3.743h-2.264c-2.3,0-3.019-1.1-2.988-2.642a5.771,5.771,0,0,1-5.284,2.831c-3.491,0-6.007-1.667-6.007-4.749,0-3.428,2.579-5.378,7.423-5.378h3.208v-.786c0-1.447-1.164-2.39-3.019-2.39-1.636,0-2.768.786-2.957,1.981h-4.277c.315-3.365,3.145-5.221,7.454-5.221,4.529,0,7.171,2.013,7.171,5.881v5.693c0,.818.377,1.038,1.038,1.038Zm-5.913-3.239h-3.24c-1.824,0-2.925.755-2.925,2.107,0,1.132.912,1.856,2.39,1.856a3.485,3.485,0,0,0,3.774-3.648Z" transform="translate(-423.108 -37.724)" fill="#fff"/>
    <path id="Path_490" data-name="Path 490" d="M637.566,49.837v4.026H635.8c-2.642,0-3.648,1.761-3.648,4.214V66h-4.435V49.837h4.026l.409,2.422a4.837,4.837,0,0,1,4.655-2.422Z" transform="translate(-483.092 -38.354)" fill="#fff"/>
    <rect id="Rectangle_322" data-name="Rectangle 322" width="4.435" height="22.016" transform="translate(156.455 5.632)" fill="#fff"/>
    <path id="Path_491" data-name="Path 491" d="M136.965,144.447c4.781,0,7.957,2.862,7.957,7.328,0,4.435-3.177,7.3-7.957,7.3h-4.246v7.391H128V144.447Zm-4.246,10.694h3.806c2.2,0,3.617-1.29,3.617-3.365,0-2.107-1.415-3.4-3.617-3.4h-3.806Z" transform="translate(-98.509 -111.166)" fill="#007cda"/>
    <path id="Path_492" data-name="Path 492" d="M211.085,169.018c4.906,0,8.272,3.019,8.335,7.768a8.37,8.37,0,0,1-.126,1.51H207.563v.126c.189,2.328,1.51,3.774,3.806,3.774,1.793,0,3.051-.786,3.428-2.3h4.372c-.5,3.145-3.239,5.661-7.485,5.661-5.473,0-8.744-3.239-8.744-8.24,0-5.064,3.271-8.3,8.146-8.3m3.9,6.385a3.719,3.719,0,0,0-7.328,0Z" transform="translate(-156.181 -130.075)" fill="#007cda"/>
    <path id="Path_493" data-name="Path 493" d="M279.594,158.452h-2.673v-3.743h2.673V150.18h4.435v4.529h3.68v3.743h-3.68v7.076c0,1.132.44,1.6,1.573,1.6h2.3v3.743h-3.68q-4.623,0-4.623-4.623Z" transform="translate(-213.117 -115.578)" fill="#007cda"/>
    <path id="Path_494" data-name="Path 494" d="M372.681,144.447v8.838h8.743v-8.838h4.718v22.016h-4.718v-9.089h-8.743v9.089h-4.718V144.447Z" transform="translate(-283.183 -111.165)" fill="#007cda"/>
    <path id="Path_495" data-name="Path 495" d="M455.458,177.29c0-4.969,3.365-8.272,8.523-8.272s8.523,3.3,8.523,8.272c0,5-3.365,8.272-8.523,8.272s-8.523-3.3-8.523-8.272m12.549,0c0-2.736-1.541-4.655-4.026-4.655s-3.994,1.919-3.994,4.655,1.51,4.655,3.994,4.655,4.026-1.919,4.026-4.655" transform="translate(-350.518 -130.075)" fill="#007cda"/>
    <path id="Path_496" data-name="Path 496" d="M539.115,179.784c.126,1.415,1.478,2.39,3.46,2.39,1.824,0,3.051-.6,3.051-1.761,0-1.29-1.132-1.415-3.711-1.73-3.743-.472-6.668-1.29-6.668-4.623,0-3.208,2.8-5.315,6.919-5.315,4.34.032,7.3,1.95,7.517,5.253h-4.215c-.126-1.2-1.352-2.076-3.177-2.076-1.667,0-2.8.66-2.8,1.73,0,1.2,1.384,1.29,3.68,1.541,3.68.409,6.762,1.258,6.762,4.906,0,3.208-2.988,5.252-7.328,5.252-4.466,0-7.548-2.107-7.706-5.567Z" transform="translate(-411.657 -129.865)" fill="#007cda"/>
    <path id="Path_497" data-name="Path 497" d="M625.268,177.32c0,5.032-3.145,8.24-7.486,8.24a5.931,5.931,0,0,1-4.875-2.233v8.335h-4.435V169.206h3.868l.44,2.233a5.985,5.985,0,0,1,4.969-2.422c4.372-.032,7.517,3.208,7.517,8.3m-4.5-.063c0-2.736-1.573-4.623-3.994-4.623s-3.931,1.887-3.931,4.623c0,2.768,1.51,4.686,3.931,4.686s3.994-1.919,3.994-4.686" transform="translate(-468.278 -130.075)" fill="#007cda"/>
    <path id="Path_498" data-name="Path 498" d="M693.588,143.109a2.565,2.565,0,1,1-2.548-2.485,2.447,2.447,0,0,1,2.548,2.485m-.346,20.412h-4.435V147.355h4.435Z" transform="translate(-529.836 -108.224)" fill="#007cda"/>
    <path id="Path_499" data-name="Path 499" d="M718.161,158.452h-2.673v-3.743h2.673V150.18H722.6v4.529h3.68v3.743H722.6v7.076c0,1.132.44,1.6,1.573,1.6h2.3v3.743h-3.68q-4.623,0-4.623-4.623Z" transform="translate(-550.636 -115.578)" fill="#007cda"/>
    <path id="Path_500" data-name="Path 500" d="M784.583,181.63v3.743h-2.264c-2.3,0-3.019-1.1-2.988-2.642a5.771,5.771,0,0,1-5.284,2.831c-3.491,0-6.007-1.667-6.007-4.749,0-3.428,2.579-5.378,7.423-5.378h3.208v-.786c0-1.447-1.164-2.39-3.019-2.39-1.636,0-2.768.786-2.957,1.981h-4.277c.315-3.365,3.145-5.221,7.454-5.221,4.529,0,7.171,2.013,7.171,5.881v5.693c0,.818.377,1.038,1.038,1.038Zm-5.913-3.239h-3.24c-1.824,0-2.925.755-2.925,2.107,0,1.132.912,1.856,2.39,1.856a3.485,3.485,0,0,0,3.774-3.648Z" transform="translate(-591.08 -130.075)" fill="#007cda"/>
    <rect id="Rectangle_323" data-name="Rectangle 323" width="4.435" height="22.016" transform="translate(195.232 33.281)" fill="#007cda"/>
    <path id="Path_501" data-name="Path 501" d="M.141,11.567H0v4.517H.141C8.578,16.084,14.7,9.32,14.7,0H10.183c0,6.81-4.129,11.566-10.042,11.566" transform="translate(0 -0.001)" fill="#007cda"/>
    <path id="Path_502" data-name="Path 502" d="M58.756,54.715H58.9V50.2h-.141c-6.94,0-12.457,4.6-14.065,11.733a19.092,19.092,0,0,0-.494,4.35h4.517c0-6.81,4.129-11.566,10.042-11.566" transform="translate(-34.013 -38.632)" fill="#fff"/>
    <path id="Path_503" data-name="Path 503" d="M706.434,109.494v.353h-.747v2.067h-.4v-2.067h-.747v-.353Z" transform="translate(-542.213 -84.266)" fill="#fff"/>
    <path id="Path_504" data-name="Path 504" d="M714.569,109.494l.774,1.9.76-1.9h.5v2.419h-.384v-1.78l-.726,1.78h-.335l-.726-1.78v1.78h-.384v-2.419Z" transform="translate(-549.533 -84.266)" fill="#fff"/>
  </g>
</svg>
